# xmcd
#
# Track frame offsets: 
#        150
#        24545
#        41067
#        60695
#        82082
#        98237
#        133450
#        170712
#
# Disc length: 2725 seconds
#
# Revision: 5
# Processed by: cddbd v1.5.2PL0 Copyright (c) Steve Scherf et al.
# Submitted via: ExactAudioCopy v1.3
#
DISCID=730aa308
DTITLE=ACCEPT - Staying A Life [DISC 1][ESCA 5169]
DYEAR=1990
DGENRE=Metal
TTITLE0=Metal Heart (LIVE)
TTITLE1=Breaker (LIVE)
TTITLE2=Screaming For A Love-Bite (LIVE)
TTITLE3=Up To The Limit (LIVE)
TTITLE4=Living For Tonight (LIVE)
TTITLE5=Princess Of The Dawn (LIVE)
TTITLE6=Neon Nights (LIVE)
TTITLE7=Burning (LIVE)
EXTD=YEAR: 1990
EXTT0=
EXTT1=
EXTT2=
EXTT3=
EXTT4=
EXTT5=
EXTT6=
EXTT7=
PLAYORDER=
